<svg clip-rule="evenodd" fill-rule="evenodd" stroke-linejoin="round" stroke-miterlimit="2" viewBox="0 0 1000 1000" xmlns="http://www.w3.org/2000/svg"><path d="m0 0h1000v1000h-1000z" fill="none"/><path d="m385 395.016v-240.016h-5c-8.279 0-15-6.721-15-15s6.721-15 15-15h140c8.279 0 15 6.721 15 15s-6.721 15-15 15h-5v240.016c86.933 27.579 150 108.975 150 204.984 0 118.662-96.338 215-215 215s-215-96.338-215-215c0-96.009 63.067-177.405 150-204.984zm100 23.296v-263.312h-70v263.312c-85.396 16.383-150 91.55-150 181.688 0 102.104 82.896 185 185 185s185-82.896 185-185c0-90.138-64.604-165.305-150-181.688z" fill="#669aff" transform="matrix(.82492884486 .22103974575 -.22103974575 .82492884486 260.57007554 17.62501372)"/><path d="m307.658 654.815c8.928 31.325 25.512 60.2 48.062 83.697 22.092 23.022 49.749 40.653 79.977 50.886 27.183 9.202 56.217 12.448 84.74 9.569 108.674-10.97 189.972-111.668 178.439-220.141-2.239-21.062-7.823-49.601-18.04-61.052-9.749-10.926-31.325-9.475-43.259-7.651-33.57 5.134-61.556 24.723-87.879 44.791-57.002 43.457-114.95 115.225-193.978 111.676-15.718-.706-35.171-3.418-48.062-11.775z" fill="#6bf" transform="matrix(.69907793418 .18731635344 -.18731635344 .69907793418 262.47751133 103.27848127)"/><path d="m346.029 613.085c2.797-15.33 13.29-40.116 52.643-9.611 18.644 14.451 37.264 21.381 51.028 24.702-23.351 7.178-47.205 9.791-71.172 2.201-11.103-3.516-24.392-9.088-32.499-17.292z" fill="#669aff" transform="matrix(.93486634299 0 0 .93486634299 32.35706699 36.30629131)"/><g fill="#ffca66"><path d="m294.094 816.305h-196.347v-196.347h.215c0 108.248 87.884 196.131 196.132 196.131z" transform="matrix(.68485639725 .68485639725 -.68485639725 .68485639725 712.69213496 -14.77965755)"/><path d="m294.094 816.305h-196.347v-196.347h.215c0 108.248 87.884 196.131 196.132 196.131z" transform="matrix(-.68485639725 .68485639725 .68485639725 .68485639725 287.3104052 -14.77965755)"/></g></svg>